<?xml version="1.0"?>
<svg width="256" height="256" xmlns="http://www.w3.org/2000/svg" xmlns:svg="http://www.w3.org/2000/svg">
 <!-- Created with SVG-edit - https://github.com/SVG-Edit/svgedit-->
 <title>Number puzzle</title>

 <g class="layer">
  <title>Layer 1</title>
  <path d="m0,0l256,0l0,256l-256,0l0,-256z" fill="#011313" id="svg_3" stroke="#000000" stroke-dasharray="null" stroke-linecap="null" stroke-linejoin="null" stroke-width="null" transform="matrix(1, 0, 0, 1, 0, 0)"/>
  <rect fill="#eff0f4" height="120" id="svg_4" stroke="#000000" stroke-dasharray="null" stroke-linecap="null" stroke-linejoin="null" transform="matrix(1, 0, 0, 1, 0, 0)" width="120" x="8" y="8"/>
  <rect fill="#eff0f4" height="120" id="svg_5" stroke="#000000" stroke-dasharray="null" stroke-linecap="null" stroke-linejoin="null" width="120" x="128" y="128"/>
  <rect fill="#bd2229" height="120" id="svg_6" stroke="#000000" stroke-dasharray="null" stroke-linecap="null" stroke-linejoin="null" width="120" x="128" y="8"/>
  <rect fill="#bd2229" height="120" id="svg_7" stroke="#000000" stroke-dasharray="null" stroke-linecap="null" stroke-linejoin="null" width="120" x="8" y="128"/>
  <text fill="#000000" font-family="Sans-serif" font-size="92" font-weight="bold" id="svg_8" stroke="#000000" stroke-dasharray="null" stroke-linecap="null" stroke-linejoin="null" stroke-opacity="null" stroke-width="0" text-anchor="middle" x="64" xml:space="preserve" y="96">1</text>
  <text fill="#eff0f4" font-family="Sans-serif" font-size="92" font-weight="bold" id="svg_9" stroke="#000000" stroke-dasharray="null" stroke-linecap="null" stroke-linejoin="null" stroke-opacity="null" stroke-width="0" text-anchor="middle" x="192" xml:space="preserve" y="96">2</text>
  <text fill="#eff0f4" font-family="Sans-serif" font-size="92" font-weight="bold" id="svg_10" stroke="#000000" stroke-dasharray="null" stroke-linecap="null" stroke-linejoin="null" stroke-opacity="null" stroke-width="0" text-anchor="middle" transform="matrix(1, 0, 0, 1, 0, 0)" x="64" xml:space="preserve" y="224">3</text>
  <text fill="#000000" font-family="Sans-serif" font-size="92" font-weight="bold" id="svg_11" stroke="#000000" stroke-dasharray="null" stroke-linecap="null" stroke-linejoin="null" stroke-opacity="null" stroke-width="0" text-anchor="middle" transform="matrix(1, 0, 0, 1, 0, 0)" x="192" xml:space="preserve" y="224">4</text>
 </g>
</svg>